# xmcd
#
# Track frame offsets:
#	150
#	14835
#	34015
#	46175
#	57197
#	73007
#	92465
#	106630
#	119800
#	135740
#	155592
#	170837
#	188735
#	204765
#	221565
#	238160
#
# Disc length: 3398 seconds
#
# Revision: 4292739069
# Processed by: cddbd v1.5.2PL0 Copyright (c) Steve Scherf et al.
# Submitted via: EZCDAudioConverter 8.2.1.1
#
DISCID=e20d4410
DTITLE=The Judds - Their Finest Collection
DYEAR=1996
DGENRE=Pop/Country
TTITLE0=Mama He's Crazy - (1996)
TTITLE1=Grandpa (Tell Me 'bout The Good Old Days) - (1996)
TTITLE2=Rockin' With The Rhythm Of The Rain - (1996)
TTITLE3=Don't Be Cruel - (1996)
TTITLE4=Why Not Me - (1996)
TTITLE5=Water Of Love - (1996)
TTITLE6=Give A Little Love To Me - (1996)
TTITLE7=Girls Night Out - (1996)
TTITLE8=Maybe Your Baby's Got The Blues - (1996)
TTITLE9=Young Love - (1996)
TTITLE10=Have Mercy - (1996)
TTITLE11=Love Is Alive - (1996)
TTITLE12=Change Of Heart - (1996)
TTITLE13=Turn It Loose - (1996)
TTITLE14=I Know Where I'm Going - (1996)
TTITLE15=Cry Myself To Sleep - (1996)
EXTD=
EXTT0=
EXTT1=
EXTT2=
EXTT3=
EXTT4=
EXTT5=
EXTT6=
EXTT7=
EXTT8=
EXTT9=
EXTT10=
EXTT11=
EXTT12=
EXTT13=
EXTT14=
EXTT15=
PLAYORDER=
